<svg xmlns="http://www.w3.org/2000/svg" xmlns:xlink="http://www.w3.org/1999/xlink" fill="none" version="1.1" width="640" height="640" viewBox="0 0 640 640"><defs><clipPath id="master_svg0_45_048"><rect x="0" y="0" width="640" height="640" rx="0"/></clipPath></defs><g clip-path="url(#master_svg0_45_048)"><g><path d="M0,0C211.2,0,422.4,0,640,0C640,211.2,640,422.4,640,640C428.8,640,217.6,640,0,640C0,428.8,0,217.6,0,0Z" fill="#FEFEFE" fill-opacity="1" style="mix-blend-mode:passthrough"/></g><g><path d="M359.0003363037109,141.99999421875C359.89833630371095,142.44087421875,360.79733630371095,142.88167421875,361.7223363037109,143.33597421875C368.93933630371095,147.01027421875,374.9623363037109,151.62787421875,381.0003363037109,156.99997421875C382.15833630371094,158.01517421875,382.15833630371094,158.01517421875,383.34033630371096,159.05077421875C392.09033630371096,167.21737421875,398.18033630371093,177.63837421875002,404.0003363037109,187.99997421875C406.416336303711,188.16687421875,406.416336303711,188.16687421875,409.0003363037109,187.99997421875C411.23433630371096,186.15307421875,411.23433630371096,186.15307421875,411.43733630371094,183.39057421875C410.8283363037109,178.67197421875,408.63233630371093,175.63507421875,406.0003363037109,171.74997421875C405.0583363037109,170.33057421875,404.1213363037109,168.90877421875,403.18733630371094,167.48437421875C402.76833630371095,166.86267421875,402.34933630371097,166.24107421875,401.91833630371093,165.60057421875C401.0003363037109,163.99997421875,401.0003363037109,163.99997421875,401.0003363037109,161.99997421875C412.51133630371095,160.09967421875,426.0723363037109,158.51417421875,436.41833630371093,164.71097421875C438.94933630371094,166.77317421875,439.01133630371095,168.08537421875,439.43733630371094,171.37497421875C439.296336303711,181.08297421875,432.07533630371097,189.95977421875,426.0003363037109,196.99997421875C425.0153363037109,198.14857421875,425.0153363037109,198.14857421875,424.01133630371095,199.32027421875C414.51633630371094,210.11767421874998,404.40333630371094,220.22357421875,393.0003363037109,228.99997421875C392.4243363037109,229.44667421875,391.84933630371097,229.89327421874998,391.2563363037109,230.35347421875C380.8373363037109,238.41557421875,370.05533630371093,245.84057421875002,359.0003363037109,252.99957421875C358.34033630371096,253.43057421875,357.68133630371096,253.86057421875,357.00233630371093,254.30357421875C346.15633630371093,261.35657421875,334.89333630371095,267.55857421875,323.4883363037109,273.65757421875C321.39333630371095,274.78757421875,319.315336303711,275.94057421875,317.2463363037109,277.11757421875C286.13043630371095,294.49557421875,234.92993630371095,319.44157421875,198.18749630371093,309.74957421875C194.57809630371094,308.63157421874996,192.93806630371094,307.26457421875,191.00000030371095,303.99957421875C189.82580630371095,292.25757421875,196.24865630371093,283.94057421875,203.00003630371094,274.99957421875C204.65623630371093,273.11357421875,204.65623630371093,273.11357421875,206.00003630371094,271.99957421875C206.66003630371094,271.99957421875,207.32003630371094,271.99957421875,208.00003630371094,271.99957421875C208.48923630371092,273.57157421875,208.48923630371092,273.57157421875,208.98823630371095,275.17557421875C209.42923630371092,276.55457421874996,209.87063630371094,277.93357421875,210.31253630371094,279.31257421875C210.52583630371095,280.00257421875,210.73913630371095,280.69357421875,210.95893630371094,281.40457421875C212.47993630371093,286.38657421875,212.47993630371093,286.38657421875,216.00003630371094,289.99957421875C219.31823630371093,289.75757421875,219.31823630371093,289.75757421875,222.00003630371094,287.99957421875C222.65403630371094,282.89857421875,221.03043630371093,279.35957421875,219.08593630371092,274.78157421875C209.78503630371094,250.96057421875,212.24043630371094,223.16847421875002,221.25003630371094,199.74997421875C231.31473630371093,177.47507421875,246.12213630371093,158.93067421875,267.00003630371094,145.99997421875C267.90233630371097,145.43667421875,268.8047363037109,144.87337421875,269.73433630371096,144.29297421875C295.8343363037109,129.04222421875,332.27133630371094,127.73908421875,359.0003363037109,141.99999421875Z" fill="#FCFCFC" fill-opacity="1" style="mix-blend-mode:passthrough"/></g><g><path d="M347.99978051757813,126.00000233886719C348.65978051757816,126.2036723388672,349.3197805175781,126.40735233886718,349.9987805175781,126.61719233886718C367.52978051757816,132.09707233886718,381.13178051757814,142.0742723388672,393.99978051757813,154.9999723388672C394.6037805175781,154.2934723388672,394.6037805175781,154.2934723388672,395.22078051757813,153.5727723388672C400.8157805175781,148.6268723388672,411.4647805175781,149.6343723388672,418.49978051757813,149.6249723388672C419.95178051757813,149.5882723388672,419.95178051757813,149.5882723388672,421.43378051757816,149.55077233886718C430.59778051757814,149.5138723388672,438.79778051757813,151.9255723388672,445.5937805175781,158.3046723388672C449.17478051757814,162.6223723388672,450.6877805175781,168.1037723388672,450.3947805175781,173.6992723388672C446.6057805175781,195.79457233886717,427.2457805175781,214.0967723388672,410.99978051757813,228.0002723388672C410.0127805175781,228.86927233886718,409.02478051757817,229.73727233886717,408.0077805175781,230.6332723388672C381.32778051757816,253.69727233886718,350.15478051757816,272.8322723388672,318.51578051757815,288.2582723388672C315.32878051757814,289.8372723388672,312.22578051757813,291.50927233886716,309.12478051757813,293.25027233886715C305.06478051757813,295.4942723388672,300.9987805175781,297.3132723388672,296.6637805175781,298.9572723388672C293.7457805175781,300.0992723388672,290.91778051757814,301.39427233886715,288.0627805175781,302.68727233886716C262.45868051757816,313.64427233886715,222.94088051757814,329.8112723388672,194.74998051757814,320.37527233886715C188.6744105175781,317.6862723388672,184.42665051757814,314.4392723388672,181.06250051757812,308.68727233886716C178.51619051757814,299.85027233886717,180.15249651757813,291.7702723388672,184.18359051757812,283.60127233886715C185.68195051757812,280.9782723388672,187.2953905175781,278.4942723388672,189.00000051757812,276.00027233886715C189.38141051757813,275.43727233886716,189.7628005175781,274.8742723388672,190.15578051757814,274.2942723388672C191.4110805175781,272.4682723388672,192.69888051757812,270.6692723388672,193.99998051757814,268.87527233886715C194.40288051757813,268.2942723388672,194.80588051757812,267.7122723388672,195.2209805175781,267.1142723388672C196.43748051757814,265.4922723388672,196.43748051757814,265.4922723388672,198.99998051757814,263.00027233886715C202.31248051757814,262.6332723388672,202.31248051757814,262.6332723388672,204.99998051757814,263.00027233886715C204.85558051757812,262.46127233886716,204.71128051757813,261.9222723388672,204.56248051757814,261.3672723388672C198.06628051757812,232.58527233886718,206.05958051757813,201.83867233886718,220.80078051757812,176.96097233886718C235.1284805175781,154.4757723388672,255.02018051757813,137.45417233886718,279.99978051757813,128.00000233886718C281.03078051757814,127.60942233886719,282.0627805175781,127.21883233886719,283.12478051757813,126.81641233886718C303.45178051757813,119.5910323388672,327.50078051757816,119.24697233886718,347.99978051757813,126.00000233886719ZM289.99978051757813,135.9999723388672C289.0077805175781,136.2668723388672,288.0147805175781,136.53367233886718,286.99178051757815,136.80857233886718C261.3551805175781,144.3390723388672,239.55458051757813,165.0228723388672,226.88328051757813,188.02737233886717C212.23368051757814,215.5938723388672,210.3168805175781,245.6702723388672,219.12498051757814,275.43727233886716C220.05198051757813,279.0072723388672,220.05198051757813,279.0072723388672,221.99998051757814,282.00027233886715C222.18748051757814,284.93727233886716,222.18748051757814,284.93727233886716,221.99998051757814,288.00027233886715C221.00998051757813,288.99027233886716,221.00998051757813,288.99027233886716,219.99998051757814,290.00027233886715C216.70288051757814,289.6702723388672,215.37728051757813,289.3772723388672,212.99998051757814,287.00027233886715C212.05968051757813,284.4642723388672,211.19208051757812,281.9492723388672,210.37498051757814,279.37527233886715C210.14558051757814,278.66827233886715,209.9160805175781,277.9622723388672,209.67968051757813,277.2342723388672C209.11438051757813,275.4912723388672,208.55648051757814,273.7462723388672,207.99998051757814,272.00027233886715C200.40988051757813,274.9312723388672,195.56338051757814,285.0162723388672,191.99998051757814,292.00027233886715C190.53838051757813,295.7762723388672,190.31908051757813,300.0172723388672,190.99998051757814,304.00027233886715C193.75338051757814,307.9582723388672,196.65648051757813,309.8042723388672,201.41408051757813,310.7152723388672C221.89758051757812,312.9732723388672,241.70988051757814,307.3712723388672,260.99998051757814,301.00027233886715C262.1134805175781,300.6322723388672,262.1134805175781,300.6322723388672,263.24948051757815,300.2572723388672C278.9896805175781,294.9962723388672,294.11278051757813,288.6702723388672,308.8657805175781,281.0802723388672C311.08778051757815,279.9552723388672,313.3247805175781,278.8722723388672,315.5707805175781,277.7972723388672C357.1637805175781,257.7342723388672,421.7167805175781,222.1762723388672,438.99978051757813,175.9999723388672C439.6597805175781,172.86867233886719,439.5777805175781,171.23567233886718,438.99978051757813,167.9999723388672C436.3727805175781,164.1123723388672,432.41478051757815,162.3177723388672,427.99978051757813,160.9999723388672C424.65478051757816,160.6309723388672,421.3607805175781,160.66977233886718,417.99978051757813,160.7499723388672C417.13678051757813,160.7551723388672,416.2727805175781,160.7602723388672,415.3827805175781,160.7656723388672C410.4987805175781,160.82497233886718,405.81678051757814,161.18857233886717,400.99978051757813,161.9999723388672C402.92978051757814,167.45497233886718,406.1387805175781,171.95077233886718,409.3207805175781,176.74607233886718C411.1187805175781,180.2303723388672,411.5217805175781,182.14307233886717,410.99978051757813,185.99997233886717C408.99978051757813,187.99997233886717,408.99978051757813,187.99997233886717,406.6447805175781,188.5546723388672C403.99978051757813,187.99997233886717,403.99978051757813,187.99997233886717,401.82378051757814,185.0702723388672C401.09578051757813,183.7638723388672,400.3847805175781,182.44807233886718,399.6877805175781,181.1249723388672C398.90478051757816,179.7364723388672,398.1177805175781,178.3510723388672,397.32378051757814,176.96877233886718C396.7387805175781,175.9477723388672,396.7387805175781,175.9477723388672,396.1417805175781,174.90627233886718C384.2697805175781,155.08957233886719,363.1107805175781,140.7979723388672,340.99978051757813,134.9999723388672C333.0337805175781,133.17857233886718,325.34578051757813,132.6465723388672,317.1877805175781,132.6874723388672C316.0437805175781,132.6916723388672,314.89878051757813,132.6958723388672,313.7197805175781,132.7001723388672C305.41278051757814,132.81117233886718,297.97578051757813,133.5565723388672,289.99978051757813,135.9999723388672Z" fill="#0B0B0B" fill-opacity="1" style="mix-blend-mode:passthrough"/></g><g><path d="M418,234.00000170996094C423.488,233.63414570996093,423.488,233.63414570996093,425.674,235.19604770996094C427.432,237.58746770996095,427.387,239.09801770996094,427.398,242.05078770996093C427.405,243.05278770996094,427.411,244.05477770996094,427.41700000000003,245.08717770996094C427.39599999999996,246.68367770996093,427.39599999999996,246.68367770996093,427.375,248.31247770996094C427.36199999999997,249.94097770996095,427.36199999999997,249.94097770996095,427.349,251.60227770996093C427.2,259.76827770996096,426.399,267.1578777099609,424,274.99997770996094C423.745,275.8868777099609,423.49,276.77377770996094,423.227,277.68747770996094C414.382,304.9513777099609,394.147,328.12397770996097,368.879,341.33427770996093C341.5256,355.111277709961,309.3954,358.6542777099609,279.9568,349.24127770996097C275.0016,347.52527770996096,270.33050000000003,345.3682777099609,265.6875,342.93727770996094C265.05901,342.6092777099609,264.4305,342.28127770996093,263.78296,341.94327770996097C260.4175,340.08427770996093,257.85666,338.42027770996094,256,335.0002777099609C256.3125,331.74997770996094,256.3125,331.74997770996094,257,328.99997770996094C260.79443,327.8451777099609,262.8242,327.44817770996093,266.4805,329.1640777099609C268.164,330.19807770996096,269.8296,331.26217770996095,271.4727,332.35937770996094C276.3401,335.51927770996093,281.1717,337.50427770996095,286.75,339.06227770996094C287.8792,339.3832777099609,289.0084,339.70427770996093,290.1719,340.03527770996095C313.1291,345.82127770996095,335.38689999999997,343.6092777099609,357,334.0002777099609C358.692,333.2632777099609,358.692,333.2632777099609,360.418,332.51167770996096C384.503,321.31107770996095,402.496,300.59057770996094,411.648,275.74607770996096C414.892,265.92367770996094,415.603,256.27957770996096,415.725,245.97047770996093C415.73699999999997,244.99277770996093,415.749,244.01507770996093,415.762,243.00781770996093C415.76099999999997,242.13785770996094,415.76099999999997,241.26789770996095,415.76,240.37158770996095C416.01800000000003,237.82381770996093,416.717,236.19638770996093,418,234.00000170996094Z" fill="#0A0A0A" fill-opacity="1" style="mix-blend-mode:passthrough"/></g><g><path d="M397.8711479003906,457.8593882617188C402.03654790039064,460.09114826171873,405.5412479003906,462.35837826171877,407.00004790039065,466.9999682617188C407.6550479003906,472.78626826171876,406.49214790039065,476.49256826171876,403.00004790039065,480.9999682617188C400.25004790039065,483.4374682617188,400.25004790039065,483.4374682617188,398.00004790039065,484.9999682617188C399.17084790039064,488.04416826171877,400.7282479003906,489.7039682617187,403.12504790039065,491.8124682617188C405.77884790039064,494.35626826171875,405.9787479003906,494.84046826171874,406.50004790039065,498.7499682617188C406.00004790039065,501.9999682617188,406.00004790039065,501.9999682617188,404.00004790039065,503.9999682617188C400.4787479003906,504.06906826171877,397.9993479003906,503.77226826171875,395.1601479003906,501.57816826171876C392.3389479003906,498.7877682617187,389.8570479003906,495.82596826171874,387.43754790039065,492.6874682617188C384.73474790039063,489.70756826171873,382.8695479003906,488.8998682617188,379.0000479003906,487.9999682617188C379.0348479003906,488.6754682617187,379.06964790039063,489.3509682617188,379.10544790039063,490.04686826171877C379.13254790039065,490.93886826171877,379.1596479003906,491.83096826171874,379.1875479003906,492.7499682617188C379.2223479003906,493.6317682617188,379.25714790039063,494.51346826171874,379.29294790039063,495.42186826171877C378.94284790039063,498.50316826171877,378.18054790039065,499.8194682617187,376.00000790039064,501.9999682617188C372.81250790039064,502.2499682617188,372.81250790039064,502.2499682617188,370.00000790039064,501.9999682617188C365.21618790039065,493.8561682617187,368.1808109003906,480.91666826171877,368.81250790039064,471.8749682617188C368.88243790039064,470.75976826171876,368.95236790039064,469.64446826171877,369.02441790039063,468.49536826171874C369.10530790039064,467.4424682617188,369.18619790039065,466.38956826171875,369.2695379003906,465.30466826171875C369.37165790039063,463.88132826171875,369.37165790039063,463.88132826171875,369.4758379003906,462.42920826171877C370.0765479003906,459.64528826171875,370.77711790039064,458.72432826171877,373.00000790039064,457.00000826171873C380.9936479003906,453.00986826171874,389.9778479003906,454.26118726171876,397.8711479003906,457.8593882617188Z" fill="#0B0B0B" fill-opacity="1" style="mix-blend-mode:passthrough"/></g><g><path d="M208.00001042480469,455C210.37501042480469,454.875,210.37501042480469,454.875,213.00001042480469,455C217.9992104248047,459.99917,216.29451042480468,470.06645,216.35011042480468,476.79495C216.3667104248047,478.26515,216.3940104248047,479.73525,216.4321104248047,481.20505C216.48711042480468,483.34545,216.5088104248047,485.48395,216.5234104248047,487.62505C216.5532104248047,489.53155,216.5532104248047,489.53155,216.58351042480467,491.47655C215.8105104248047,496.14455,214.34461042480467,497.70375,211.00001042480469,501.00005C208.0156104248047,502.22265,208.0156104248047,502.22265,205.00001042480469,502.00005C202.85171042480468,500.16635,201.4259104248047,498.64685,199.75001042480469,496.43745C199.2862104248047,495.85845,198.8223104248047,495.27945,198.3445104248047,494.68285000000003C193.3078104248047,488.31435,188.61521042480467,481.67745,184.00001042480469,475.00005C183.9499104248047,475.80225,183.89981042480468,476.60435,183.8481104248047,477.43095C183.61631042480468,481.05875,183.3708104248047,484.68555,183.12501042480469,488.31245C183.0070104248047,490.20645,183.0070104248047,490.20645,182.88671042480468,492.13865C182.80291042480468,493.34715,182.71911042480468,494.55565,182.6328104248047,495.80075C182.5595104248047,496.91625,182.48621042480468,498.03165,182.4106104248047,499.18095C182.00001042480469,502.00005,182.00001042480469,502.00005,180.00000042480468,505.00005C177.00000042480468,505.31245,177.00000042480468,505.31245,174.00000042480468,505.00005C171.45836242480468,502.45835,171.74270642480468,500.80555,171.6964569248047,497.33735C171.69736862480468,496.56345,171.6982803248047,495.78955,171.6992187248047,494.99215C171.69493482480468,494.19275,171.69064712480468,493.39325,171.6862335248047,492.56965C171.6804809248047,490.87325,171.6799965248047,489.17685,171.6843261248047,487.48045C171.6874618248047,484.90585,171.6641197248047,482.33235,171.6386719248047,479.75785C171.6363945248047,478.10675,171.63569642480468,476.45575,171.6367187248047,474.80465C171.6229057248047,473.66205,171.6229057248047,473.66205,171.6088104248047,472.49635C171.6549644248047,467.05975,172.7192504248047,462.95563,175.00000042480468,458C177.31250042480468,456.8125,177.31250042480468,456.8125,180.00000042480468,457C190.80041042480468,460.52187,197.6644104248047,474.20115,204.00001042480469,483.00005C204.0490104248047,481.87725,204.09801042480467,480.75445,204.1484104248047,479.59765C205.0500104248047,460.89993,205.0500104248047,460.89993,208.00001042480469,455Z" fill="#0D0D0D" fill-opacity="1" style="mix-blend-mode:passthrough"/></g><g><path d="M395.12496040039065,384.1250123875C396.99996040039065,385.0000126875,396.99996040039065,385.0000126875,398.99996040039065,387.0000146875C399.2123604003906,389.7873746875,399.3039604003906,392.4727146875,399.30076040039063,395.2617046875C399.30506040039063,396.0857046875,399.30936040039063,396.9098046875,399.3137604003906,397.7588046875C399.3195604003906,399.5064046875,399.31996040039064,401.2541046875,399.31566040039064,403.0017046875C399.3125604003906,405.6598046875,399.33586040039063,408.3167046875,399.3613604003906,410.9746046875C399.3635604003906,412.6745046875,399.3642604003906,414.3744046875,399.36326040039063,416.0742046875C399.37246040039065,416.8630046875,399.3816604003906,417.6518046875,399.3911604003906,418.4645046875C399.3415604003906,424.4691046875,398.4192604003906,429.5808046875,393.99996040039065,434.0000046875C390.43026040039064,433.9400046875,389.1771604003906,433.1728046875,386.6054604003906,430.6641046875C385.8075604003906,429.6612046875,385.0095604003906,428.6583046875,384.18746040039065,427.6250046875C383.54666040039064,426.8278046875,383.54666040039064,426.8278046875,382.89286040039065,426.0144046875C379.2811604003906,421.4786046875,375.85556040039063,416.8070046875,372.4960604003906,412.0820046875C371.1645604003906,410.1107046875,371.1645604003906,410.1107046875,369.99996040039065,409.0000046875C369.98546040039065,409.6810046875,369.9708604003906,410.3621046875,369.95586040039063,411.0637046875C369.88136040039063,414.1472046875,369.78466040039064,417.2296046875,369.68746040039065,420.3125046875C369.6536604003906,421.9203046875,369.6536604003906,421.9203046875,369.6191604003906,423.5606046875C369.5836604003906,424.5886046875,369.54826040039063,425.6166046875,369.51176040039064,426.6758046875C369.4855604003906,427.6237046875,369.4593604003906,428.5715046875,369.4323604003906,429.5481046875C368.9314604003906,432.3885046875,368.30006040039063,433.3084046875,366.0000004003906,435.0000046875C363.5000004003906,435.4375046875,363.5000004003906,435.4375046875,361.0000004003906,435.0000046875C358.4406934003906,432.5594046875,358.0114174003906,431.1014046875,357.61181640039064,427.5518046875C357.5920829803906,426.1857046875,357.5896759003906,424.8193046875,357.6015625003906,423.4531046875C357.5986938003906,422.7231046875,357.5958214003906,421.9931046875,357.59286499039064,421.2409046875C357.5908279403906,419.6977046875,357.5963364003906,418.1545046875,357.6088867003906,416.6113046875C357.62485120039065,414.2715046875,357.60907750039064,411.9335046875,357.5898437503906,409.5938046875C357.5918273903906,408.0885046875,357.59567640039063,406.5833046875,357.6015625003906,405.0781046875C357.5954895003906,404.3883046875,357.5894165003906,403.6984046875,357.5831604003906,402.9876046875C357.6513176003906,398.1788046875,358.39693440039065,391.6030746875,362.0000004003906,388.0000146875C365.56289040039064,387.9287546875,367.82406040039064,388.0462946875,370.6328604003906,390.3242346875C372.5573604003906,392.4672946875,374.27826040039065,394.6890046875,375.99996040039065,397.0000046875C376.4555604003906,397.6094046875,376.9110604003906,398.2188046875,377.3803604003906,398.8467046875C380.6275604003906,403.2022046875,383.8254604003906,407.5913046875,386.99996040039065,412.0000046875C387.0594604003906,410.9409046875,387.0594604003906,410.9409046875,387.1201604003906,409.8604046875C387.31086040039065,406.6554046875,387.53006040039065,403.4531046875,387.74996040039065,400.2500046875C387.81186040039063,399.1388046875,387.8737604003906,398.0277046875,387.93746040039065,396.8828046875C388.0535604003906,395.2779046875,388.0535604003906,395.2779046875,388.17186040039064,393.6406346875C388.2347604003906,392.6561146875,388.29756040039064,391.6715946875,388.3622604003906,390.6572346875C389.2333604003906,387.0277546875,391.07806040039065,383.8869586875,395.12496040039065,384.1250123875Z" fill="#0B0B0B" fill-opacity="1" style="mix-blend-mode:passthrough"/></g><g><path d="M280.9999972167969,383.9999961714844C280.9999972167969,384.6599957714844,280.9999972167969,385.3199957714844,280.9999972167969,385.99999577148435C281.6186972167969,386.14437577148436,282.2374972167969,386.2887457714844,282.8749972167969,386.43749577148435C284.9999972167969,386.99999577148435,284.9999972167969,386.99999577148435,286.9999972167969,387.99999577148435C287.1249972167969,390.87499577148435,287.1249972167969,390.87499577148435,286.9999972167969,394.00001577148436C284.9999972167969,396.00001577148436,284.9999972167969,396.00001577148436,281.98829721679687,396.0547157714844C280.16879721679686,395.9657157714844,280.16879721679686,395.9657157714844,278.3124972167969,395.87501577148436C272.09719721679687,395.80501577148436,268.7648972167969,395.9602157714844,263.9999972167969,400.00001577148436C259.77049721679685,405.20561577148436,259.55779721679687,409.5280157714844,259.5663972167969,416.1328157714844C260.0595972167969,419.3944157714844,261.1419972167969,421.3022157714844,262.9999972167969,424.00001577148436C263.39189721679685,424.59811577148434,263.7836972167969,425.1962157714844,264.1874972167969,425.81251577148436C267.25579721679685,427.82271577148435,270.5164972167969,427.61121577148435,273.9999972167969,427.00001577148436C278.25669721679685,424.75841577148435,278.25669721679685,424.75841577148435,280.9999972167969,421.00001577148436C279.32939721679685,420.8144157714844,279.32939721679685,420.8144157714844,277.6249972167969,420.62501577148436C273.9999972167969,420.00001577148436,273.9999972167969,420.00001577148436,271.9999972167969,418.00001577148436C271.8749972167969,415.37501577148436,271.8749972167969,415.37501577148436,271.9999972167969,413.00001577148436C275.36939721679687,410.97191577148436,278.0320972167969,410.7023157714844,281.9374972167969,410.68751577148436C283.46699721679687,410.6623157714844,283.46699721679687,410.6623157714844,285.02729721679685,410.6367157714844C288.43289721679685,411.0529157714844,290.25979721679687,411.96511577148436,292.9999972167969,414.00001577148436C294.9999972167969,417.00001577148436,294.9999972167969,417.00001577148436,294.9999972167969,419.62501577148436C292.67669721679687,427.46601577148436,287.94739721679684,432.8830157714844,280.9999972167969,437.00001577148436C274.68259721679686,439.14791577148435,265.5535972167969,439.5305157714844,259.3788972167969,436.87111577148437C253.40543721679688,432.54621577148436,250.00637721679686,427.04781577148435,247.99999221679687,420.00001577148436C247.02333421679688,410.31291577148437,247.74491521679687,402.60761577148435,253.68358721679687,394.78121577148437C261.76779721679685,385.18445577148435,268.75459721679687,383.6014107714844,280.9999972167969,383.9999961714844Z" fill="#0C0C0C" fill-opacity="1" style="mix-blend-mode:passthrough"/></g><g><path d="M218.56248940429688,389.375C222.93818940429688,390.170578,223.51118940429689,391.41556,225.99998940429688,395C227.00208940429687,396.90487,227.93668940429689,398.84634,228.81248940429688,400.8125C229.31908940429688,401.9417,229.82568940429687,403.0709,230.3476894042969,404.2344C230.89968940429688,405.489,231.45038940429689,406.7443,231.99998940429688,408C232.30408940429686,408.6929,232.6080894042969,409.3857,232.92138940429686,410.0996C234.16558940429687,412.9372,235.40908940429688,415.775,236.63988940429687,418.6184C237.75838940429688,421.1985,238.86898940429688,423.7531,240.18748940429688,426.2383C241.53128940429687,429.1519,241.23268940429688,431.8585,240.99998940429688,435C238.99998940429688,437,238.99998940429688,437,236.62498940429688,437.4375C233.99998940429688,437,233.99998940429688,437,231.81248940429688,434.8125C230.15148940429688,432.2351,229.08708940429688,429.8494,227.99998940429688,427C226.10318940429687,426.9091,226.10318940429687,426.9091,224.16798940429686,426.8164C222.5077894042969,426.73199999999997,220.8476894042969,426.6473,219.18748940429688,426.5625C218.35408940429687,426.5232,217.52078940429686,426.4839,216.66208940429686,426.4434C215.45848940429687,426.3805,215.45848940429687,426.3805,214.23048940429686,426.3164C213.49208940429688,426.2797,212.75368940429686,426.2431,211.99288940429688,426.2053C209.99998940429688,426,209.99998940429688,426,206.99998940429688,425C206.75248940429688,425.88689999999997,206.50498940429688,426.7738,206.24998940429688,427.6875C204.9255894042969,431.1971,203.68888940429687,433.388,200.9999994042969,436C198.04045940429688,436.5775,196.70437940429687,436.4226,194.1249994042969,434.875C192.40739840429688,432.0123,193.24808140429687,430.2083,193.9999984042969,427C195.07622940429687,424.4655,196.18627940429687,422.0424,197.42186940429687,419.5898C197.76373940429687,418.8999,198.10559940429687,418.21,198.45781940429688,417.4992C199.18011940429687,416.0475,199.90649940429688,414.5978,200.63671940429688,413.1501C201.74521940429688,410.947,202.83418940429686,408.735,203.92188940429688,406.5215C204.62908940429688,405.1062,205.33738940429689,403.6915,206.04688940429688,402.2773C206.36788940429688,401.622,206.68898940429688,400.9667,207.01968940429688,400.2915C209.76038940429686,394.91855,212.38128940429687,390.45942,218.56248940429688,389.375Z" fill="#0A0A0A" fill-opacity="1" style="mix-blend-mode:passthrough"/></g><g><path d="M339.99994169921877,452.0000088144531C341.33614169921873,452.0657508144531,341.33614169921873,452.0657508144531,342.69924169921876,452.1328208144531C346.9439416992187,452.4555608144531,349.92774169921876,452.9277148144531,352.99994169921877,456.0000048144531C352.68744169921877,458.3750048144531,352.68744169921877,458.3750048144531,351.99994169921877,461.0000048144531C348.79594169921876,463.1360348144531,348.00394169921873,463.24213481445315,344.33204169921873,463.19533481445313C343.43934169921874,463.1888348144531,342.54664169921875,463.18243481445313,341.6269416992188,463.17583481445314C340.23374169921874,463.1506348144531,340.23374169921874,463.1506348144531,338.81244169921877,463.1250348144531C337.87214169921873,463.11603481445314,336.9317416992188,463.1069348144531,335.96284169921876,463.0976348144531C333.6416416992187,463.07413481445315,331.32094169921874,463.0412348144531,328.99994169921877,463.0000348144531C328.99994169921877,465.64003481445314,328.99994169921877,468.28003481445313,328.99994169921877,471.0000348144531C330.57204169921874,470.9304348144531,330.57204169921874,470.9304348144531,332.17574169921875,470.8593348144531C333.55464169921873,470.82183481445315,334.9335416992187,470.78543481445314,336.31244169921877,470.7500348144531C337.00274169921875,470.7165348144531,337.6930416992187,470.6829348144531,338.40424169921874,470.64843481445314C343.52384169921874,470.5495348144531,343.52384169921874,470.5495348144531,345.95704169921873,472.85153481445315C347.2331416992188,475.4802348144531,347.45554169921877,477.11513481445314,346.99994169921877,480.0000348144531C343.20834169921875,482.52773481445314,340.1912416992187,482.2244348144531,335.81244169921877,482.1250348144531C335.06294169921875,482.11603481445314,334.31334169921877,482.1069348144531,333.54104169921874,482.0976348144531C331.69384169921875,482.07413481445315,329.84684169921877,482.0382348144531,327.99994169921877,482.0000348144531C327.99994169921877,484.97003481445313,327.99994169921877,487.94003481445316,327.99994169921877,491.0000348144531C330.09604169921874,490.94783481445313,330.09604169921874,490.94783481445313,332.23434169921876,490.8945348144531C334.07284169921877,490.8664348144531,335.91144169921876,490.83913481445313,337.74994169921877,490.8125348144531C338.67034169921874,490.7873348144531,339.59074169921877,490.7622348144531,340.5390416992187,490.73633481445313C341.4285416992187,490.7266348144531,342.31794169921875,490.71703481445314,343.23434169921876,490.7070348144531C344.05134169921877,490.6913348144531,344.86824169921874,490.67563481445313,345.70994169921875,490.6594348144531C348.56294169921875,491.0837348144531,349.92054169921875,492.03063481445315,351.99994169921877,494.0000348144531C352.43744169921877,496.5000348144531,352.43744169921877,496.5000348144531,351.99994169921877,499.0000348144531C350.82174169921876,500.6291348144531,350.82174169921876,500.6291348144531,348.99994169921877,502.0000348144531C344.9059416992188,502.6471348144531,340.76434169921873,502.46313481445316,336.62494169921877,502.4375348144531C334.91954169921877,502.4674348144531,334.91954169921877,502.4674348144531,333.17964169921873,502.49803481445315C324.83642169921876,502.49313481445313,324.83642169921876,502.49313481445313,320.7734216992188,500.0976348144531C317.5691886992187,496.30763481445314,317.83918759921875,493.0910348144531,317.83201599921875,488.3242348144531C317.82868769921873,487.5620348144531,317.82535929921875,486.7998348144531,317.82192989921873,486.01463481445313C317.8168620992187,484.39983481445313,317.81452179921877,482.7850348144531,317.81468199921875,481.17013481445315C317.8125018992188,478.7076348144531,317.79436489921875,476.2456348144531,317.7753753992188,473.7832348144531C317.77243999921876,472.2135348144531,317.7704562992187,470.64393481445313,317.76951599921875,469.0742348144531C317.75873759921876,467.9739348144531,317.75873759921876,467.9739348144531,317.74774169921875,466.85153481445315C317.76570319921876,462.80033481445315,318.05328769921874,459.5868948144531,319.9999816992187,456.0000048144531C326.15807169921874,450.9366928144531,332.31684169921874,451.5354878144531,339.99994169921877,452.0000088144531Z" fill="#0B0B0B" fill-opacity="1" style="mix-blend-mode:passthrough"/></g><g><path d="M496.5625256835938,451.6874916246094C497.60342568359374,451.67137832460935,498.64432568359376,451.6552651246094,499.71682568359375,451.6386635246094C500.71902568359377,451.6380190246094,501.72132568359376,451.6373744246094,502.75392568359376,451.63671042460936C503.66472568359376,451.6337294246094,504.57552568359375,451.6307485246094,505.51392568359375,451.6276772246094C508.47902568359376,452.0717237246094,509.85412568359374,452.9323677246094,512.0000256835938,454.99998772460935C512.4375256835938,457.56248772460935,512.4375256835938,457.56248772460935,512.0000256835938,459.99998772460935C508.64882568359377,462.2341677246094,507.5822256835938,462.2384677246094,503.67582568359376,462.1952677246094C502.13372568359375,462.1856677246094,502.13372568359375,462.1856677246094,500.56052568359377,462.1757677246094C499.48872568359377,462.1589677246094,498.41682568359374,462.1422677246094,497.3125256835938,462.12496772460935C496.22902568359376,462.1159677246094,495.1456256835937,462.1069677246094,494.02932568359375,462.0976677246094C491.35262568359377,462.0740677246094,488.6764256835938,462.04116772460935,486.00001568359374,461.99996772460935C486.00001568359374,464.9699677246094,486.00001568359374,467.93996772460935,486.00001568359374,470.9999677246094C487.01322568359376,470.9651677246094,488.02642568359374,470.93036772460937,489.07032568359375,470.8945677246094C490.42182568359374,470.8663677246094,491.77342568359376,470.8390677246094,493.1250256835938,470.8124677246094C493.79012568359377,470.7873677246094,494.45532568359374,470.7622677246094,495.1406256835937,470.73636772460935C499.86902568359375,470.6667677246094,502.95122568359375,471.5971677246094,507.0000256835938,473.9999677246094C506.2500256835938,478.7499677246094,506.2500256835938,478.7499677246094,504.0000256835938,480.9999677246094C498.03542568359376,482.2690677246094,492.07492568359373,482.09886772460936,486.00001568359374,481.9999677246094C486.00001568359374,485.29996772460936,486.00001568359374,488.59996772460937,486.00001568359374,491.9999677246094C487.55332568359376,491.9651677246094,489.10662568359373,491.93036772460937,490.70702568359377,491.8945677246094C492.74222568359374,491.8663677246094,494.77732568359374,491.8390677246094,496.8125256835938,491.8124677246094C497.83662568359375,491.7873677246094,498.86082568359376,491.7622677246094,499.9160256835938,491.73636772460935C501.3904256835938,491.7217677246094,501.3904256835938,491.7217677246094,502.89452568359377,491.7070677246094C503.8005256835938,491.69126772460936,504.7065256835937,491.6755677246094,505.63992568359373,491.65936772460935C508.0000256835938,491.9999677246094,508.0000256835938,491.9999677246094,509.79172568359377,493.36206772460935C511.0000256835938,494.9999677246094,511.0000256835938,494.9999677246094,511.4375256835938,497.4999677246094C511.0000256835938,499.9999677246094,511.0000256835938,499.9999677246094,509.58202568359377,501.64056772460935C505.5763256835937,503.7495677246094,501.70272568359377,503.35386772460936,497.2500256835938,503.2499677246094C496.38122568359375,503.2448677246094,495.51232568359376,503.2396677246094,494.61722568359374,503.2343677246094C489.34862568359375,503.1710677246094,484.17996568359376,502.99876772460937,479.00001568359374,501.9999677246094C476.49376068359373,498.2405677246094,476.69407078359376,495.2498677246094,476.69923398359373,490.8945677246094C476.69494818359374,490.0964677246094,476.6906642835938,489.2984677246094,476.6862487835937,488.4762677246094C476.68050578359373,486.7858677246094,476.68000408359376,485.09546772460936,476.68434138359373,483.40506772460935C476.68748288359376,480.8392677246094,476.66410828359375,478.2746677246094,476.63868718359373,475.70896772460935C476.63641168359374,474.0624677246094,476.63571168359374,472.41596772460935,476.63673398359373,470.7695677246094C476.62752338359377,470.0108677246094,476.61831474359377,469.2522677246094,476.60882568359375,468.47066772460937C476.65514178359376,463.0389677246094,477.5535166835937,458.8893177246094,480.00001568359374,453.99998772460935C484.9187456835937,450.90146472460935,490.93282568359376,451.66999732460937,496.5625256835938,451.6874916246094Z" fill="#0C0C0C" fill-opacity="1" style="mix-blend-mode:passthrough"/></g><g><path d="M329.68746796875,385.6250025683594C330.52856796875,385.6005103683594,331.36976796875,385.5760181683594,332.23636796875,385.55078380835937C338.33486796875,385.5217660683594,338.33486796875,385.5217660683594,341.58596796874997,387.8593775683594C342.99996796875,389.9999975683594,342.99996796875,389.9999975683594,342.93746796875,392.6249975683594C341.99996796875,395.00000756835936,341.99996796875,395.00000756835936,338.99996796875,396.9999575683594C332.44566796875,397.8056575683594,325.52906796875,396.68345756835936,318.99996796875,395.9999575683594C318.99996796875,398.96995756835935,318.99996796875,401.9399575683594,318.99996796875,404.9999575683594C319.96426796875,404.9535575683594,320.92846796875,404.90715756835937,321.92186796875,404.85935756835937C323.18516796875,404.8232575683594,324.44846796875,404.78715756835936,325.74996796875,404.7499575683594C327.00296796875,404.7035575683594,328.25596796875,404.65715756835937,329.54686796875,404.60935756835937C332.99996796875,404.9999575683594,332.99996796875,404.9999575683594,335.45706796875,406.8515575683594C336.99996796875,408.9999575683594,336.99996796875,408.9999575683594,336.93746796875,411.6249575683594C335.99996796875,413.9999575683594,335.99996796875,413.9999575683594,332.99996796875,415.9999575683594C330.08206796875,416.1953575683594,330.08206796875,416.1953575683594,326.81246796875,416.1249575683594C325.18246796875,416.0979575683594,325.18246796875,416.0979575683594,323.51956796875,416.0703575683594C322.27236796875,416.03555756835937,322.27236796875,416.03555756835937,320.99996796875,415.9999575683594C320.99996796875,418.3099575683594,320.99996796875,420.6199575683594,320.99996796875,422.9999575683594C322.18076796875,422.96515756835936,323.36156796875,422.9303575683594,324.57816796875,422.89455756835935C326.13536796875,422.8663575683594,327.69266796875,422.83905756835935,329.24996796875,422.8124575683594C330.41596796875,422.7747575683594,330.41596796875,422.7747575683594,331.60546796875,422.7363575683594C335.11646796875,422.69135756835936,337.38336796875,422.66825756835937,340.51956796875,424.3554575683594C341.99996796875,425.9999575683594,341.99996796875,425.9999575683594,342.43746796875,428.4999575683594C341.91956796875,431.4593575683594,341.34296796875003,432.1837575683594,338.99996796875,433.9999575683594C336.84276796875,434.37235756835935,336.84276796875,434.37235756835935,334.35936796875,434.36325756835936C333.45316796875,434.3626575683594,332.54696796875,434.36195756835934,331.61326796875,434.3613575683594C330.19596796875,434.3371575683594,330.19596796875,434.3371575683594,328.74996796875,434.3124575683594C327.82056796875,434.31575756835934,326.89116796875,434.3189575683594,325.93356796875,434.32225756835936C320.60846796875,434.28085756835935,315.97617796875,433.96805756835937,310.99999796875,431.9999575683594C308.86072196875,428.7910575683594,308.74422076875,427.93095756835936,308.73437496875,424.23825756835936C308.73034667875,423.2910575683594,308.72631835875,422.3438575683594,308.72216796875,421.3679575683594C308.73135184875,420.35965756835935,308.74053766875,419.3513575683594,308.74999996875,418.3124575683594C308.75797656875,416.7720575683594,308.75797656875,416.7720575683594,308.76611326875,415.20045756835935C309.05267296875,391.94732756835936,309.05267296875,391.94732756835936,312.99999796875,388.00000756835936C318.59080796875,385.96040456835937,323.76946796875,385.6341991683594,329.68746796875,385.6250025683594Z" fill="#0D0D0D" fill-opacity="1" style="mix-blend-mode:passthrough"/></g><g><path d="M120.56250001464844,454C123.00000001464844,455,123.00000001464844,455,124.12647001464843,457.1355C125.14084001464843,460.46176,125.32214001464844,463.35587,125.41404001464844,466.832C125.45274001464844,468.1243,125.49144001464843,469.4166,125.53124001464843,470.748C125.56274001464844,472.1029,125.59394001464844,473.4577,125.62504001464843,474.8125C125.66324001464844,476.1869,125.70224001464844,477.5612,125.74214001464844,478.9355C125.83634001464844,482.2902,125.92194001464844,485.6449,126.00004001464843,489C128.69664001464844,490.3483,130.86584001464843,490.1691,133.87504001464845,490.1875C134.92434001464844,490.2017,135.97364001464842,490.2159,137.05464001464844,490.2305C139.98644001464845,490.0011,141.46724001464844,489.3747,144.00004001464845,488C144.01454001464845,487.1425,144.02914001464845,486.2849,144.04424001464844,485.4014C144.10534001464845,482.2104,144.17954001464844,479.0201,144.26244001464843,475.8296C144.29564001464843,474.4505,144.32374001464842,473.0712,144.34644001464844,471.6919C144.38004001464844,469.7058,144.43394001464844,467.72,144.48824001464843,465.7344C144.51444001464844,464.5404,144.54064001464843,463.34639,144.56764001464845,462.11621C145.02594001464843,458.81333,145.75954001464845,457.41004,148.00004001464845,455C150.90464001464844,455.31402,152.54074001464843,455.53566,154.62984001464844,457.64795C157.47784001464845,462.53693,156.68464001464844,468.6103,156.75004001464845,474.125C156.84284001464843,476.047,156.84284001464843,476.047,156.93754001464845,478.0078C157.02474001464844,485.1051,156.46874001464843,489.3654,151.68754001464845,494.7969C145.55324001464845,500.8078,140.84754001464844,502.106,132.37504001464845,502.375C125.74924001464844,502.1914,122.14736001464844,501.1275,117.38086001464843,496.405C114.42479371464843,492.7684,114.30643801464844,489.1927,114.40625191464844,484.6445C114.40621181464844,483.8611,114.40617131464843,483.0776,114.40612981464844,482.2704C114.41146611464843,480.624,114.42896751464843,478.9775,114.45800971464844,477.3313C114.50005601464844,474.8093,114.49905901464844,472.2899,114.49218901464843,469.7676C114.50267601464844,468.164,114.51561201464844,466.5605,114.53125201464844,464.957C114.53155401464844,463.82731,114.53155401464844,463.82731,114.53186201464844,462.67476C114.64902501464844,457.51201,114.64902501464844,457.51201,116.36914001464844,455.00269C118.00000001464844,454,118.00000001464844,454,120.56250001464844,454Z" fill="#0A0A0A" fill-opacity="1" style="mix-blend-mode:passthrough"/></g><g><path d="M445.99995922851565,453.99999497070314C449.02375922851564,455.0544949707031,451.2663592285156,456.28475497070315,453.99995922851565,457.99999497070314C454.12495922851565,460.87499497070314,454.12495922851565,460.87499497070314,453.99995922851565,463.99999497070314C451.99995922851565,465.99999497070314,451.99995922851565,465.99999497070314,448.43745922851565,466.18749497070314C444.99995922851565,465.99999497070314,444.99995922851565,465.99999497070314,443.99995922851565,464.99999497070314C441.08465922851565,464.49959497070313,441.08465922851565,464.49959497070313,437.99995922851565,464.99999497070314C436.06455922851563,467.39059497070315,436.06455922851563,467.39059497070315,434.99995922851565,469.99999497070314C436.2374592285156,469.8762949707031,436.2374592285156,469.8762949707031,437.49995922851565,469.74999497070314C443.83495922851563,470.2024949707031,448.29325922851564,472.86459497070314,452.43745922851565,477.62499497070314C455.71875922851564,481.71989497070314,456.3438592285156,484.46329497070315,456.2851592285156,489.6796949707031C455.7543592285156,493.9984949707031,453.3433592285156,496.66619497070315,450.3515592285156,499.6366949707031C447.0200592285156,501.5680949707031,443.86885922851565,501.47529497070315,440.12495922851565,501.43749497070314C439.0827592285156,501.4674949707031,439.0827592285156,501.4674949707031,438.0195592285156,501.49799497070313C432.8671792285156,501.49319497070314,429.9644892285156,500.21969497070313,425.9999992285156,496.99999497070314C423.9024882285156,494.04439497070314,423.62250722851564,491.58609497070313,423.9999962285156,487.99999497070314C425.9999992285156,485.99999497070314,425.9999992285156,485.99999497070314,428.9374992285156,485.68749497070314C431.9999992285156,485.99999497070314,431.9999992285156,485.99999497070314,433.3671792285156,487.4765949707031C435.58375922851565,489.54459497070314,437.20195922851565,489.49359497070316,440.18745922851565,489.68749497070314C441.08855922851563,489.75319497070313,441.98955922851565,489.8189949707031,442.9179592285156,489.8866949707031C443.60505922851564,489.9240949707031,444.29205922851565,489.96149497070314,444.99995922851565,489.99999497070314C444.6803592285156,487.02879497070313,444.6803592285156,487.02879497070313,442.99995922851565,483.99999497070314C440.13445922851565,482.5435949707031,437.0963592285156,481.8259949707031,433.99995922851565,480.99999497070314C430.38513922851564,479.8180949707031,427.6051192285156,478.70269497070313,425.0624992285156,475.74999497070314C423.28290022851564,471.14399497070315,423.4296412285156,467.5525949707031,425.1249992285156,462.93749497070314C425.74374922851564,461.9681249707031,426.3624992285156,460.9987449707031,426.9999992285156,459.99999497070314C427.35577922851564,459.4366749707031,427.7115592285156,458.87335497070313,428.0781192285156,458.2929649707031C432.67903922851565,452.37551697070313,439.0840592285156,452.9747889707031,445.99995922851565,453.99999497070314Z" fill="#0B0B0B" fill-opacity="1" style="mix-blend-mode:passthrough"/></g><g><path d="M261.0000069824219,452C263.99272698242186,452.191025,266.18720698242186,452.338005,268.55664698242185,454.26782C270.2163069824219,456.25955,271.13330698242186,458.14593,272.15620698242185,460.52734C272.53910698242186,461.40197,272.92200698242186,462.2766,273.3164069824219,463.1777C273.7070069824219,464.0885,274.0976069824219,464.9992,274.5000069824219,465.9375C275.2765069824219,467.7403,276.0576069824219,469.5412,276.84370698242185,471.3398C277.1860069824219,472.1377,277.52820698242186,472.9355,277.8809069824219,473.7576C279.0349069824219,476.07,280.3898069824219,477.9846,282.0000069824219,480C285.1683069824219,474.8206,288.22660698242186,469.61990000000003,291.0625069824219,464.25C295.5884069824219,455.99559,295.5884069824219,455.99559,299.0000069824219,453C302.8125069824219,453.125,302.8125069824219,453.125,306.0000069824219,454C306.3349069824219,458.91234,305.4287069824219,461.84064,303.1484069824219,466.1758C302.2416069824219,467.9131,302.2416069824219,467.9131,301.3164069824219,469.6855C300.9969069824219,470.2823,300.67740698242187,470.8791,300.3481069824219,471.4939C299.38670698242186,473.2907,298.44380698242185,475.0962,297.5039069824219,476.9043C287.4908069824219,495.908,287.4908069824219,495.908,282.0000069824219,498C279.4375069824219,497.875,279.4375069824219,497.875,277.0000069824219,497C273.94900698242185,493.5761,272.0761069824219,489.4561,270.0625069824219,485.375C269.7084069824219,484.6622,269.35430698242186,483.9495,268.98950698242186,483.2151C266.7152869824219,478.5875,264.6280669824219,473.9331,262.8085969824219,469.1055C262.03964698242186,467.1032,261.1630369824219,465.1897,260.2500069824219,463.25C258.9480699824219,459.86496999999997,258.58262598242186,457.58946,259.0000059824219,454C259.66000598242186,453.34,260.3200069824219,452.68,261.0000069824219,452Z" fill="#0C0C0C" fill-opacity="1" style="mix-blend-mode:passthrough"/></g><g><path d="M337.47658017578124,151.30077390722656C352.9639801757813,154.37420990722657,364.84518017578125,163.22202990722656,375.9999801757813,174.00002990722658C376.63938017578124,174.61362990722657,377.27878017578126,175.22722990722656,377.9374801757813,175.85932990722657C384.12198017578123,182.31992990722657,390.31008017578125,192.00972990722656,390.6249801757813,201.18752990722658C389.99448017578123,205.03382990722656,389.85998017578123,205.72032990722656,386.9999801757813,208.00002990722658C384.4999801757813,208.43752990722658,384.4999801757813,208.43752990722658,381.9999801757813,208.00002990722658C379.24208017578127,205.65062990722657,378.76818017578125,203.16662990722656,378.1249801757813,199.75002990722658C375.90288017578126,188.85252990722657,366.9614801757813,179.66672990722657,358.2499801757813,173.25002990722658C349.5019801757812,167.52172990722656,340.80278017578127,163.58332990722656,330.36329017578123,162.42182990722657C328.00001017578126,162.00002990722658,328.00001017578126,162.00002990722658,326.00001217578125,159.99998990722656C325.44529917578126,154.78568990722655,325.44529917578126,154.78568990722655,327.1914201757813,152.31248990722656C330.42651017578123,149.96477690722656,333.66721017578124,150.87187490722656,337.47658017578124,151.30077390722656Z" fill="#0C0C0C" fill-opacity="1" style="mix-blend-mode:passthrough"/></g><g><path d="M427.6785,385.7597656875C429.926,385.7500496875,432.1726,385.7190100875,434.4199,385.6874999875C435.8516,385.6809703875,437.2832,385.6757197875,438.7148,385.6718749875C440.6657,385.6578564875,440.6657,385.6578564875,442.656,385.6435546875C446.1612,386.0171826875,447.5806,386.4825616875,450,389.0000046875C450.4375,391.5000046875,450.4375,391.5000046875,450,394.0000046875C448.8281,395.6445546875,448.8281,395.6445546875,447,396.9999546875C444.3008,397.2929546875,444.3008,397.2929546875,441.3125,397.1874546875C440.3186,397.1604546875,439.3248,397.1333546875,438.3008,397.1054546875C437.5415,397.0706546875,436.7823,397.0358546875,436,396.9999546875C436.0079,398.1561546875,436.0079,398.1561546875,436.0159,399.3356546875C436.03679999999997,402.8696546875,436.04970000000003,406.4035546875,436.0625,409.9374546875C436.0709,411.1498546875,436.0793,412.3622546875,436.0879,413.6113546875C436.1056,420.1511546875,436.0713,426.5385546875,435,432.9999546875C433,434.9999546875,433,434.9999546875,429.375,435.1249546875C428.2612,435.0837546875,427.1475,435.0424546875,426,434.9999546875C424.4135,431.8270546875,424.8792,428.4117546875,424.9023,424.9296546875C424.9038,424.1334546875,424.9052,423.3372546875,424.9066,422.5168546875C424.9122,419.9695546875,424.9248,417.4222546875,424.9375,414.8749546875C424.9425,413.1497546875,424.9471,411.4244546875,424.9512,409.6992546875C424.9622,405.4661546875,424.9795,401.2330546875,425,396.9999546875C424.3144,397.0173546875,423.6288,397.0347546875,422.9224,397.0527546875C422.0224,397.0662546875,421.1225,397.0797546875,420.1953,397.0937546875C419.30344,397.1111546875,418.41157,397.1285546875,417.49268,397.1464546875C414.34639,396.9615546875,412.44421,395.9553546875,410,394.0000046875C410.33,391.6900046875,410.66,389.3800046875,411,387.0000046875C416.3301,385.2232996875,422.09590000000003,385.7744006875,427.6785,385.7597656875Z" fill="#0E0E0E" fill-opacity="1" style="mix-blend-mode:passthrough"/></g><g><path d="M239.5625046875,453.5625C240.3668746875,453.706875,241.1712546875,453.85125,242.0000046875,454C246.7994546875,461.19916,245.1862546875,472.2155,245.1852546875,480.6682C245.1875546875,482.9567,245.2058546875,485.2448,245.2246546875,487.5332C245.2275546875,488.9896,245.2295546875,490.446,245.2304546875,491.90229999999997C245.2345546875,493.2171,245.2386546875,494.5319,245.2429546875,495.8865C244.9999546875,499,244.9999546875,499,243.0000046875,501C240.5625046875,501.375,240.5625046875,501.375,238.0000046875,501C234.5371096875,497.9081,234.5053526875,494.4411,233.9999996875,490C233.7953566875,485.3406,233.7722686875,480.6829,233.7597656875,476.0198C233.7499786875,473.8077,233.7188558875,471.5966,233.6874999875,469.3848C233.6809758875,467.9714,233.6757230875,466.5579,233.6718749875,465.1445C233.6625294875,463.8694,233.6531834575,462.59428,233.6435546875,461.28052C234.1143026875,456.94803,235.0580846875,454.331546,239.5625046875,453.5625Z" fill="#0F0F0F" fill-opacity="1" style="mix-blend-mode:passthrough"/></g><g><path d="M147.437475,406.56249229882815C148.392075,406.5425122988281,149.346575,406.5225316988281,150.330075,406.50194569882814C157.294875,406.50681959882814,157.294875,406.50681959882814,160.664075,408.8632762988281C161.999975,410.99999629882814,161.999975,410.99999629882814,161.937475,413.62499629882814C160.999975,415.99999629882814,160.999975,415.99999629882814,157.999975,418.0000062988281C154.701875,418.4287062988281,151.38547499999999,418.32420629882813,148.062475,418.3125062988281C147.155675,418.3286062988281,146.248775,418.3447062988281,145.314475,418.36130629882814C144.000575,418.3623062988281,144.000575,418.3623062988281,142.660155,418.36330629882815C141.862305,418.3662062988281,141.064455,418.36920629882815,140.242435,418.3723062988281C137.438675,417.90680629882814,136.056145,416.93470629882813,134,414.99999629882814C133.5625,412.49999629882814,133.5625,412.49999629882814,134,409.99999629882814C137.420385,405.47227529882815,142.233235,406.52399429882814,147.437475,406.56249229882815Z" fill="#0C0C0C" fill-opacity="1" style="mix-blend-mode:passthrough"/></g><g><path d="M485.49995,407.687499946875C486.36755,407.671386746875,487.23505,407.655273446875,488.12895,407.638671846875C488.96295,407.638027346875,489.79695,407.637382806875,490.65625,407.636718746875C491.41745,407.633737786875,492.17865,407.630756836875,492.96285,407.627685546875C495.54085,408.098851546875,496.41945,408.944145546875,497.99995,410.999995546875C498.43755,413.499995546875,498.43755,413.499995546875,497.99995,415.999995546875C496.19965,418.012185546875,494.71545,418.895985546875,492.03245,419.28608554687503C489.66025,419.404285546875,487.31235,419.408985546875,484.93755,419.374985546875C484.12215,419.386585546875,483.30685,419.398185546875,482.4668,419.410185546875C481.6824,419.406285546875,480.89801,419.402385546875,480.08984,419.398485546875C479.37691,419.395085546875,478.66398,419.391685546875,477.92944,419.388185546875C475.42485,418.884285546875,474.53314,418.015285546875,473,415.999995546875C472.625,412.937495546875,472.625,412.937495546875,473,409.999995546875C477.17144,407.219040546875,480.59963,407.669296546875,485.49995,407.687499946875Z" fill="#121212" fill-opacity="1" style="mix-blend-mode:passthrough"/></g><g><path d="M380,463.999992734375C387.07487,463.356821734375,391.0949,465.172632734375,397,468.999992734375C396.4582,473.601182734375,396.4582,473.601182734375,394.4336,475.363302734375C389.34289,477.784102734375,385.63275,478.402302734375,380,478.000002734375C380,473.379992734375,380,468.759992734375,380,463.999992734375Z" fill="#F1F1F1" fill-opacity="1" style="mix-blend-mode:passthrough"/></g><g><path d="M217,405C217.66,405,218.32,405,219,405C219.6712,406.45625,220.33682,407.91508,221,409.375C221.55688,410.59316,221.55688,410.59316,222.125,411.83594C223,414,223,414,223,416C219.7,416,216.4,416,213,416C213.606987,411.87249,215.03811,408.66789,217,405Z" fill="#E3E3E3" fill-opacity="1" style="mix-blend-mode:passthrough"/></g><g><path d="M400,236C400,236.99,400,237.98,400,239C399.01,239.33,398.02,239.66,397,240C397.33,240.99,397.66,241.98,398,243C395.8705,244.1042,393.843,245.05234,391.5625,245.8125C388.33858,247.3065,386.38979,249.4054,384,252C383.67,251.01,383.34,250.02,383,249C383.808243,248.3967,384.61648,247.7934,385.44922,247.1719C386.52868,246.3646,387.6081,245.55733,388.6875,244.75C389.74324,243.96109,390.79898000000003,243.17219,391.88672,242.35938C394.6282,240.28173,397.3258,238.16319,400,236Z" fill="#E9E9E9" fill-opacity="1" style="mix-blend-mode:passthrough"/></g><g><path d="M449,394C449.33,395.32,449.66,396.64,450,398C446.7998,399.06672,445.11456,398.94845,441.8125,398.5625C440.91145,398.46066,440.01039,398.35883,439.08203,398.25391C438.39496,398.17012,437.70789,398.08633,437,398C436.67,399.32,436.34,400.64,436,402C436,400.35,436,398.7,436,397C436.77086,396.95102,437.54172,396.90203,438.33594,396.85156C439.33883,396.7768,440.34172,396.70203,441.375,396.625C442.37273,396.55539,443.37047,396.48578,444.39844,396.41406C447.1551,396.23636,447.1551,396.23636,449,394Z" fill="#DBDBDB" fill-opacity="1" style="mix-blend-mode:passthrough"/></g><g><path d="M247,147C247,150.39593,246.47834,151.0662,244.5,153.6875C244.03594,154.31012,243.57188,154.93273,243.09375,155.57422C242.73281,156.04473,242.37187,156.51523,242,157C241.67,156.34,241.34,155.68,241,155C240.34,154.67,239.68,154.34,239,154C241.64,151.69,244.28,149.38,247,147Z" fill="#222222" fill-opacity="1" style="mix-blend-mode:passthrough"/></g><g><path d="M183,474C184.32,475.32,185.64,476.64,187,478C186.67,478.66,186.34,479.32,186,480C185.34,480,184.68,480,184,480C184,481.98,184,483.96,184,486C183.67,486,183.34,486,183,486C183,482.04,183,478.08,183,474Z" fill="#D6D6D6" fill-opacity="1" style="mix-blend-mode:passthrough"/></g><g><path d="M354,258.00000071875C351.64998,260.72107171875,349.44325,261.96702171875,346,263.00000171875C345.01,262.67000171875,344.02,262.34000171875,343,262.00000171875C344.2624,261.13341171875,345.53528,260.28208171875,346.8125,259.43750171875C347.5202,258.96183171875,348.22789,258.48617171875,348.95703,257.99609471875C351,257.00000071875,351,257.00000071875,354,258.00000071875Z" fill="#1B1B1B" fill-opacity="1" style="mix-blend-mode:passthrough"/></g><g><path d="M269,452.0000126660156C269,452.9900126660156,269,453.9800126660156,269,455.0000126660156C268.44312,454.6700126660156,267.88625,454.34001266601564,267.3125,454.0000126660156C264.69715,452.86905266601565,262.81934,452.8433826660156,260,453.0000126660156C260,452.34001266601564,260,451.6800126660156,260,451.0000116660156C263.77898,449.9502966660156,265.64919,449.89024366601564,269,452.0000126660156Z" fill="#EBEBEB" fill-opacity="1" style="mix-blend-mode:passthrough"/></g><g><path d="M325,272C325.66,272.33,326.32,272.66,327,273C325.70525,275.58949,324.67337,275.96036,322,277C319.25,277.125,319.25,277.125,317,277C319.54621,274.9994,321.98038,273.20785,325,272Z" fill="#2C2C2C" fill-opacity="1" style="mix-blend-mode:passthrough"/></g><g><path d="M391,243C391.66,243.33,392.32,243.66,393,244C392.27684,244.61488,392.27684,244.61488,391.53906,245.24219C390.90742,245.78102,390.27578,246.31984,389.625,246.875C388.99852,247.40867,388.37203,247.94234,387.72656,248.49219C386.44163,249.61432,385.20628,250.79372,384,252C383.67,251.01,383.34,250.02,383,249C385.64,247.02,388.28,245.04,391,243Z" fill="#DFDFDF" fill-opacity="1" style="mix-blend-mode:passthrough"/></g><g><path d="M378,177C379.32,178.32,380.64,179.64,382,181C380.68,181.99,379.36,182.98,378,184C376.875,179.25,376.875,179.25,378,177Z" fill="#151515" fill-opacity="1" style="mix-blend-mode:passthrough"/></g><g><path d="M263,149C263.33,149.66,263.66,150.32,264,151C263.34,151,262.68,151,262,151C262,151.66,262,152.32,262,153C261.34,153,260.68,153,260,153C259.67,153.99,259.34,154.98,259,156C258.01,155.67,257.02,155.34,256,155C260.75,150.125,260.75,150.125,263,149Z" fill="#E5E5E5" fill-opacity="1" style="mix-blend-mode:passthrough"/></g><g><path d="M186,479C186.99,479.99,187.98,480.98,189,482C187,484,187,484,184,485C184,483.35,184,481.7,184,480C184.66,479.67,185.32,479.34,186,479Z" fill="#F6F6F6" fill-opacity="1" style="mix-blend-mode:passthrough"/></g><g><path d="M510,454C510.66,454.33,511.32,454.66,512,455C512,456.65,512,458.3,512,460C510.02,460.99,510.02,460.99,508,462C508.875,456.25,508.875,456.25,510,454Z" fill="#191919" fill-opacity="1" style="mix-blend-mode:passthrough"/></g><g><path d="M299,453C299.66,453.66,300.32,454.32,301,455C297.535,457.97,297.535,457.97,294,461C295.18582,457.62496,296.27574,455.35277,299,453Z" fill="#1A1A1A" fill-opacity="1" style="mix-blend-mode:passthrough"/></g><g><path d="M342,394C342.33,394.99,342.66,395.98,343,397C342.67,397.66,342.34,398.32,342,399C339.03,398.67,336.06,398.34,333,398C333,397.67,333,397.34,333,397C333.565899,396.86723,334.1318,396.73445,334.71484,396.59766C335.81506,396.33275,335.81506,396.33275,336.9375,396.0625C337.6684,395.88848,338.3993,395.71445,339.15234,395.53516C340.9997,395.16112,340.9997,395.16112,342,394Z" fill="#DDDDDD" fill-opacity="1" style="mix-blend-mode:passthrough"/></g></g></svg>